<svg version="1.1" xmlns="http://www.w3.org/2000/svg" xmlns:xlink="http://www.w3.org/1999/xlink" preserveAspectRatio="xMidYMid meet" viewBox="0 0 640 640" width="640" height="640"><defs><path d="M77.34 195.29C77.34 263.58 129.75 319.14 194.16 319.14C258.57 319.14 310.98 263.58 310.98 195.29C310.98 126.99 258.57 71.43 194.16 71.43C129.75 71.43 77.34 126.99 77.34 195.29Z" id="a3vBlgg1Hm"></path><path d="M458.95 89.15C431.92 89.38 406.67 100.79 387.86 121.3C369.37 141.44 359.32 168.01 359.55 196.11C359.78 224.22 370.27 250.62 389.09 270.45C408.05 290.44 433.17 301.42 459.9 301.42C460.17 301.42 460.44 301.42 460.71 301.42C487.74 301.19 512.99 289.78 531.8 269.28C550.29 249.14 560.34 222.56 560.11 194.46C559.63 136.22 514.68 89.15 459.75 89.15C459.48 89.15 459.22 89.15 458.95 89.15Z" id="c29upIZAYY"></path><path d="M454.98 321.7C409.8 321.7 368.58 338.87 337.45 367.02C345.24 373 352.65 379.51 359.68 386.54C380.4 407.26 396.68 431.41 408.05 458.31C418.3 482.54 424.15 508.06 425.51 534.35C439.81 534.35 511.31 534.35 640 534.35C640 511.94 640 499.5 640 497.01C640 400.35 561.35 321.7 464.68 321.7C462.74 321.7 455.95 321.7 454.98 321.7Z" id="bieS4U9s6"></path><path d="M312.4 395.11C281.04 371.74 242.14 357.9 200 357.9C198.83 357.9 189.49 357.9 188.33 357.9C84.31 357.9 0 442.21 0 546.22C0 547.71 0 555.16 0 568.57L388.31 568.57C388.31 555.16 388.31 547.71 388.31 546.22C388.31 542.24 388.19 538.27 387.94 534.35C384.4 477.36 355.51 427.24 312.4 395.11Z" id="amVXjLOud"></path></defs><g><g><g><use xlink:href="#a3vBlgg1Hm" opacity="1" fill="#156cb3" fill-opacity="1"></use><g><use xlink:href="#a3vBlgg1Hm" opacity="1" fill-opacity="0" stroke="#000000" stroke-width="1" stroke-opacity="0"></use></g></g><g><use xlink:href="#c29upIZAYY" opacity="1" fill="#156cb3" fill-opacity="1"></use><g><use xlink:href="#c29upIZAYY" opacity="1" fill-opacity="0" stroke="#000000" stroke-width="1" stroke-opacity="0"></use></g></g><g><use xlink:href="#bieS4U9s6" opacity="1" fill="#156cb3" fill-opacity="1"></use><g><use xlink:href="#bieS4U9s6" opacity="1" fill-opacity="0" stroke="#000000" stroke-width="1" stroke-opacity="0"></use></g></g><g><use xlink:href="#amVXjLOud" opacity="1" fill="#156cb3" fill-opacity="1"></use><g><use xlink:href="#amVXjLOud" opacity="1" fill-opacity="0" stroke="#000000" stroke-width="1" stroke-opacity="0"></use></g></g></g></g></svg>