<?xml version="1.0" encoding="utf-8"?>
<!-- Generator: Adobe Illustrator 24.2.0, SVG Export Plug-In . SVG Version: 6.00 Build 0)  -->
<svg version="1.1" id="Layer_1" xmlns="http://www.w3.org/2000/svg" xmlns:xlink="http://www.w3.org/1999/xlink" x="0px" y="0px"
	 viewBox="0 0 200 200" style="enable-background:new 0 0 200 200;" xml:space="preserve">
<style type="text/css">
	.st0{fill:#FFFFFF;}
	.st1{fill:#FFDA02;}
</style>
<g>
	<path class="st0" d="M99.8,160.6c-0.9,0-1.6-0.7-1.6-1.6V47.6c0-0.9,0.7-1.6,1.6-1.6c0.9,0,1.6,0.7,1.6,1.6V159
		C101.4,159.9,100.7,160.6,99.8,160.6z"/>
	<path class="st1" d="M127.2,166.3c-4.8,0-8.7-3.9-8.7-8.7v-1.3H84.3v1.3c0,4.8-3.9,8.7-8.7,8.7c-4.8,0-8.7-3.9-8.7-8.7V45.7
		c0-4.8,3.9-8.7,8.7-8.7c4.8,0,8.7,3.9,8.7,8.7V50h34.2v-4.3c0-4.8,3.9-8.7,8.7-8.7s8.7,3.9,8.7,8.7v111.9
		C135.9,162.4,132,166.3,127.2,166.3z M78.9,150.9h45.1v6.7c0,1.8,1.5,3.3,3.3,3.3c1.8,0,3.3-1.5,3.3-3.3V45.7
		c0-1.8-1.5-3.3-3.3-3.3c-1.8,0-3.3,1.5-3.3,3.3v9.7H78.9v-9.7c0-1.8-1.5-3.3-3.3-3.3c-1.8,0-3.3,1.5-3.3,3.3v111.9
		c0,1.8,1.5,3.3,3.3,3.3c1.8,0,3.3-1.5,3.3-3.3V150.9z"/>
	<path class="st1" d="M122.9,94.8H80V84.6h42.9V94.8z M83.2,91.5h36.4v-3.7H83.2V91.5z"/>
	<path class="st1" d="M122.9,108.3H80V98h42.9V108.3z M83.2,105h36.4v-3.7H83.2V105z"/>
	<path class="st1" d="M122.9,121.8H80v-10.2h42.9V121.8z M83.2,118.5h36.4v-3.7H83.2V118.5z"/>
	<path class="st1" d="M122.9,81.3H80V71.1h42.9V81.3z M83.2,78h36.4v-3.7H83.2V78z"/>
	<path class="st1" d="M122.9,135.2H80V125h42.9V135.2z M83.2,132h36.4v-3.7H83.2V132z"/>
	<path class="st1" d="M122.9,67.8H80V57.6h42.9V67.8z M83.2,64.6h36.4v-3.7H83.2V64.6z"/>
	<path class="st1" d="M122.9,148.7H80v-10.2h42.9V148.7z M83.2,145.5h36.4v-3.7H83.2V145.5z"/>
</g>
</svg>
