<svg xmlns="http://www.w3.org/2000/svg" viewBox="0 0 411.52 411.52">
  <path d="M383.379 166.3c15.563 0 28.141-12.596 28.141-28.151 0-15.535-12.578-28.142-28.141-28.142-10.412 0-19.514 5.658-24.355 14.07H240.68v-21.594h-69.795v21.594H52.543c-4.889-8.412-13.965-14.07-24.394-14.07C12.625 110.007 0 122.613 0 138.148 0 153.704 12.625 166.3 28.149 166.3c10.43 0 19.506-5.668 24.394-14.078h56.318c-52.445 32.538-87.494 90.654-87.494 156.814h28.172c0-74.155 51.926-136.402 121.346-152.306v15.57h69.795v-15.576c69.404 15.902 121.334 78.156 121.334 152.312h28.139c0-66.152-34.988-124.27-87.473-156.814h56.344c4.841 8.41 13.943 14.078 24.355 14.078zm-159.584-10.887H187.77v-36.042h36.025v36.042z"/>
</svg>