<?xml version="1.0" encoding="utf-8"?>
<!-- Generator: Adobe Illustrator 24.2.0, SVG Export Plug-In . SVG Version: 6.00 Build 0)  -->
<svg version="1.1" id="Layer_1" xmlns="http://www.w3.org/2000/svg" xmlns:xlink="http://www.w3.org/1999/xlink" x="0px" y="0px"
	 viewBox="0 0 200 200" style="enable-background:new 0 0 200 200;" xml:space="preserve">
<style type="text/css">
	.st0{fill:none;}
	.st1{fill:#FFFFFF;}
	.st2{fill:#FFDA02;}
</style>
<g>
	<g>
		<path class="st0" d="M104.5,45.4c-3.5,0-6.5,3.9-7.2,9h14.4C110.9,49.3,108,45.4,104.5,45.4z"/>
		<path class="st0" d="M104.5,68c4,0,7.3-5.2,7.3-11.3H97.1C97.2,62.8,100.5,68,104.5,68z"/>
		<path class="st1" d="M97.1,56.7C97.1,56.7,97.1,56.7,97.1,56.7l14.7,0c0,0,0,0,0,0c0-0.8-0.1-1.6-0.2-2.3H97.3
			C97.2,55.1,97.1,55.9,97.1,56.7z"/>
		<path class="st1" d="M91.9,54.3h-79c-0.7,0-1.2,0.5-1.2,1.2s0.5,1.2,1.2,1.2h78.9c0,0,0,0,0,0C91.8,55.9,91.8,55.1,91.9,54.3z"/>
		<path class="st1" d="M187.1,54.3h-70c0.1,0.8,0.1,1.5,0.1,2.3c0,0,0,0,0,0h69.9c0.7,0,1.2-0.5,1.2-1.2S187.7,54.3,187.1,54.3z"/>
		<path class="st2" d="M104.5,45.4c3.5,0,6.5,3.9,7.2,9h5.4C116.2,46.1,111,40,104.5,40c-6.5,0-11.7,6.1-12.6,14.3h5.4
			C98,49.3,101,45.4,104.5,45.4z"/>
		<path class="st2" d="M104.5,68c-4,0-7.3-5.2-7.3-11.3h-5.4c0,9.3,5.6,16.6,12.7,16.6c7.1,0,12.7-7.3,12.7-16.6h-5.4
			C111.8,62.8,108.5,68,104.5,68z"/>
		<path class="st1" d="M117.1,54.3h-5.4c0.1,0.8,0.2,1.5,0.2,2.3c0,0,0,0,0,0h5.4c0,0,0,0,0,0C117.2,55.9,117.1,55.1,117.1,54.3z"/>
		<path class="st2" d="M97.1,56.7c0-0.8,0.1-1.6,0.2-2.3h-5.4c-0.1,0.8-0.1,1.5-0.1,2.3c0,0,0,0,0,0L97.1,56.7
			C97.1,56.7,97.1,56.7,97.1,56.7z"/>
	</g>
	<path class="st2" d="M110.5,163.3H98.4c-5.7,0-10.3-4.6-10.3-10.3V79.1c0-5.7,4.6-10.3,10.3-10.3h12.1c5.7,0,10.3,4.6,10.3,10.3
		v73.8C120.9,158.6,116.2,163.3,110.5,163.3z M98.4,74.1c-2.8,0-5,2.2-5,5v73.8c0,2.8,2.2,5,5,5h12.1c2.8,0,5-2.2,5-5V79.1
		c0-2.8-2.2-5-5-5H98.4z"/>
</g>
</svg>
