<?xml version="1.0" encoding="utf-8"?>
<!-- Generator: Adobe Illustrator 24.2.0, SVG Export Plug-In . SVG Version: 6.00 Build 0)  -->
<svg version="1.1" id="Layer_1" xmlns="http://www.w3.org/2000/svg" xmlns:xlink="http://www.w3.org/1999/xlink" x="0px" y="0px"
	 viewBox="0 0 200 200" style="enable-background:new 0 0 200 200;" xml:space="preserve">
<style type="text/css">
	.st0{fill:none;}
	.st1{fill:#FFFFFF;}
	.st2{fill:#FFDA02;}
</style>
<g>
	<path class="st0" d="M72.7,81.2H40.4c-0.9,0-1.7,0.5-2.2,1.2h36.6C74.4,81.7,73.6,81.2,72.7,81.2z"/>
	<path class="st0" d="M161.2,81.2h-32.3c-0.9,0-1.7,0.5-2.2,1.2h36.6C162.9,81.7,162.1,81.2,161.2,81.2z"/>
	<path class="st0" d="M40.4,86.4h14.9v34.3c0,0.7,0.6,1.3,1.3,1.3c0.7,0,1.3-0.6,1.3-1.3V86.4h14.9c1,0,1.9-0.6,2.3-1.4H38.1
		C38.5,85.8,39.4,86.4,40.4,86.4z"/>
	<path class="st0" d="M128.9,86.4h14.9v34.3c0,0.7,0.6,1.3,1.3,1.3s1.3-0.6,1.3-1.3V86.4h14.9c1,0,1.9-0.6,2.3-1.4h-36.9
		C127,85.8,127.9,86.4,128.9,86.4z"/>
	<path class="st1" d="M33.6,82.4H6.1c-0.7,0-1.3,0.6-1.3,1.3S5.4,85,6.1,85h27.5c-0.1-0.4-0.1-0.8-0.1-1.2
		C33.5,83.3,33.5,82.8,33.6,82.4z"/>
	<path class="st1" d="M122.1,82.4H79.5c0.1,0.5,0.1,0.9,0.1,1.4c0,0.4,0,0.8-0.1,1.2H122c-0.1-0.4-0.1-0.8-0.1-1.2
		C121.9,83.3,122,82.8,122.1,82.4z"/>
	<path class="st1" d="M196.7,82.4h-28.8c0.1,0.5,0.1,0.9,0.1,1.4c0,0.4,0,0.8-0.1,1.2h28.7c0.7,0,1.3-0.6,1.3-1.3
		S197.4,82.4,196.7,82.4z"/>
	<path class="st2" d="M40.4,81.2h32.3c0.9,0,1.7,0.5,2.2,1.2h4.6c-0.7-3.1-3.4-5.5-6.8-5.5H40.4c-3.3,0-6.1,2.4-6.8,5.5h4.6
		C38.7,81.7,39.5,81.2,40.4,81.2z"/>
	<path class="st2" d="M72.7,86.4H57.9v34.3c0,0.7-0.6,1.3-1.3,1.3c-0.7,0-1.3-0.6-1.3-1.3V86.4H40.4c-1,0-1.9-0.6-2.3-1.4h-4.5
		c0.6,3.3,3.4,5.8,6.8,5.8h10.5v30c0,3.1,2.5,5.6,5.6,5.6c3.1,0,5.6-2.5,5.6-5.6v-30h10.5c3.4,0,6.3-2.5,6.8-5.8H75
		C74.6,85.8,73.7,86.4,72.7,86.4z"/>
	<path class="st2" d="M37.8,83.8c0-0.5,0.2-1,0.4-1.4h-4.6c-0.1,0.5-0.1,0.9-0.1,1.4c0,0.4,0,0.8,0.1,1.2h4.5
		C37.9,84.6,37.8,84.2,37.8,83.8z"/>
	<path class="st2" d="M79.5,82.4h-4.6c0.3,0.4,0.4,0.9,0.4,1.4c0,0.4-0.1,0.8-0.3,1.2h4.5c0.1-0.4,0.1-0.8,0.1-1.2
		C79.7,83.3,79.6,82.8,79.5,82.4z"/>
	<path class="st2" d="M128.9,81.2h32.3c0.9,0,1.7,0.5,2.2,1.2h4.6c-0.7-3.1-3.4-5.5-6.8-5.5h-32.3c-3.3,0-6.1,2.4-6.8,5.5h4.6
		C127.2,81.7,128,81.2,128.9,81.2z"/>
	<path class="st2" d="M161.2,86.4h-14.9v34.3c0,0.7-0.6,1.3-1.3,1.3s-1.3-0.6-1.3-1.3V86.4h-14.9c-1,0-1.9-0.6-2.3-1.4H122
		c0.6,3.3,3.4,5.8,6.8,5.8h10.5v30c0,3.1,2.5,5.6,5.6,5.6s5.6-2.5,5.6-5.6v-30h10.5c3.4,0,6.3-2.5,6.8-5.8h-4.5
		C163,85.8,162.2,86.4,161.2,86.4z"/>
	<path class="st2" d="M126.3,83.8c0-0.5,0.2-1,0.4-1.4h-4.6c-0.1,0.5-0.1,0.9-0.1,1.4c0,0.4,0,0.8,0.1,1.2h4.5
		C126.4,84.6,126.3,84.2,126.3,83.8z"/>
	<path class="st2" d="M167.9,82.4h-4.6c0.3,0.4,0.4,0.9,0.4,1.4c0,0.4-0.1,0.8-0.3,1.2h4.5c0.1-0.4,0.1-0.8,0.1-1.2
		C168.1,83.3,168,82.8,167.9,82.4z"/>
</g>
</svg>
