<svg id="Layer_5" enable-background="new 0 0 64 64" height="512" viewBox="0 0 64 64" width="512" xmlns="http://www.w3.org/2000/svg"><g><path d="m32 7c-13.785 0-25 11.215-25 25s11.215 25 25 25 25-11.215 25-25-11.215-25-25-25zm0 48c-12.683 0-23-10.318-23-23s10.317-23 23-23 23 10.318 23 23-10.317 23-23 23z"/><path d="m32 11c-11.579 0-21 9.42-21 21s9.421 21 21 21 21-9.42 21-21-9.421-21-21-21zm0 40c-10.477 0-19-8.523-19-19s8.523-19 19-19 19 8.523 19 19-8.523 19-19 19z"/><path d="m32 15c-9.374 0-17 7.626-17 17s7.626 17 17 17 17-7.626 17-17-7.626-17-17-17zm0 32c-8.271 0-15-6.729-15-15s6.729-15 15-15 15 6.729 15 15-6.729 15-15 15z"/><path d="m57 55c0 1.103.897 2 2 2s2-.897 2-2v-12.059c-1.001 2.644-2.353 5.117-4 7.361z"/><path d="m32 3c-15.99 0-29 13.009-29 29s13.01 29 29 29 29-13.009 29-29-13.01-29-29-29zm0 56c-14.888 0-27-12.112-27-27s12.112-27 27-27 27 12.112 27 27-12.112 27-27 27z"/><path d="m3 55c0 1.103.897 2 2 2s2-.897 2-2v-4.698c-1.647-2.244-2.999-4.716-4-7.361z"/><path d="m58 58.858v4.142h2v-4.142c-.322.084-.653.142-1 .142s-.678-.058-1-.142z"/><path d="m4 58.858v4.142h2v-4.142c-.322.084-.653.142-1 .142s-.678-.058-1-.142z"/></g></svg>