<svg version="1.1" xmlns="http://www.w3.org/2000/svg" xmlns:xlink="http://www.w3.org/1999/xlink" preserveAspectRatio="xMidYMid meet" viewBox="0 0 640 640" width="640" height="640"><defs><path d="M474.53 401.91C456.67 395.82 434.71 401.41 423.8 412.61C416.61 418.04 359.04 461.5 351.84 466.93C268.39 422.38 216.98 370.99 173.04 288.16C178.31 281.15 220.49 225.08 225.76 218.08C239.46 204.4 244.38 184.41 238.49 165.66C226.39 129.01 220.24 90.56 220.24 51.36C220.24 23.04 197.21 0 168.89 0C157.14 0 63.11 0 51.36 0C23.04 0 0 23.04 0 51.36C0 375.94 264.06 640 588.65 640C616.96 640 640 616.96 640 588.65C640 576.92 640 483.16 640 471.44C640 443.13 616.96 420.09 588.65 420.09C549.46 420.09 510.99 413.96 474.53 401.91Z" id="d4fkIdbQ"></path></defs><g><g><g><use xlink:href="#d4fkIdbQ" opacity="1" fill="#156cb3" fill-opacity="1"></use><g><use xlink:href="#d4fkIdbQ" opacity="1" fill-opacity="0" stroke="#000000" stroke-width="1" stroke-opacity="0"></use></g></g></g></g></svg>