<svg xmlns="http://www.w3.org/2000/svg" viewBox="0 0 512 512">
  <path d="M494.479 123.595C505.778 112.297 512 97.229 512 81.166c0-16.063-6.222-31.132-17.521-42.429L473.264 17.52C461.967 6.222 446.898 0 430.836 0c-16.064 0-31.131 6.222-42.43 17.52L255.979 149.946 106.185.15.109 106.226l149.796 149.795L35.358 370.568 0 512l141.433-35.359 114.546-114.546 149.795 149.796 106.073-106.074-149.793-149.796 132.425-132.426zm-84.858-84.862c5.63-5.629 13.165-8.731 21.215-8.731 8.049 0 15.583 3.101 21.215 8.733l21.215 21.215c5.631 5.631 8.733 13.166 8.733 21.215s-3.102 15.583-8.733 21.215l-10.607 10.607-63.645-63.645 10.607-10.609zm-31.823 31.824l63.645 63.645-21.216 21.216-63.645-63.645 21.216-21.216zM42.539 106.226l63.645-63.645 28.717 28.717-21.215 21.215 21.215 21.215 21.215-21.215 28.717 28.717-21.215 21.215 21.215 21.215 21.215-21.215 28.717 28.717-63.645 63.645L42.539 106.226zm292.829 6.762l21.216 21.215L91.333 399.452l-21.215-21.215 265.25-265.249zM41.234 470.766l15.797-63.187 47.39 47.39-63.187 15.797zm92.529-28.885l-21.215-21.215 265.249-265.249 21.215 21.215-265.249 265.249zm235.793-135.928l-21.215 21.215 21.215 21.215 21.215-21.215 28.717 28.717-21.215 21.215 21.215 21.215 21.215-21.215 28.717 28.717-63.645 63.645-128.58-128.58 63.645-63.645 28.716 28.716z"/>
</svg>