<?xml version="1.0" encoding="utf-8"?>
<!-- Generator: Adobe Illustrator 24.2.0, SVG Export Plug-In . SVG Version: 6.00 Build 0)  -->
<svg version="1.1" id="Layer_1" xmlns="http://www.w3.org/2000/svg" xmlns:xlink="http://www.w3.org/1999/xlink" x="0px" y="0px"
	 viewBox="0 0 200 200" style="enable-background:new 0 0 200 200;" xml:space="preserve">
<style type="text/css">
	.st0{fill:none;}
	.st1{fill:#FFFFFF;}
	.st2{fill:#FFDA02;}
</style>
<g>
	<g>
		<path class="st0" d="M138.6,141.5c0.4,0,0.7-0.1,1-0.3c0.1-0.1,0.2-0.1,0.3-0.2c0.2-0.2,0.3-0.4,0.4-0.6c0.1-0.2,0.1-0.5,0.1-0.7
			c0-0.2,0-0.5-0.1-0.7c-0.1-0.2-0.2-0.4-0.4-0.6c-0.3-0.3-0.6-0.4-1-0.5c-0.1,0-0.2,0-0.4,0c-0.3,0-0.5,0-0.7,0.1
			c-0.2,0.1-0.4,0.2-0.6,0.4c-0.7,0.7-0.7,1.9,0,2.7C137.6,141.3,138.1,141.5,138.6,141.5z"/>
		<path class="st1" d="M63.5,59.4c-1.4,0-2.7,0.5-3.6,1.5c-2,2-2,5.3,0,7.3c1,1,2.3,1.5,3.6,1.5c1.4,0,2.7-0.5,3.6-1.5
			c2-2,2-5.3,0-7.3C66.1,59.9,64.8,59.4,63.5,59.4z M65.1,66.2c-0.4,0.4-1,0.7-1.7,0.7c-0.6,0-1.2-0.2-1.7-0.7
			c-0.9-0.9-0.9-2.4,0-3.4c0.4-0.4,1-0.7,1.7-0.7c0.6,0,1.2,0.2,1.7,0.7C66.1,63.8,66.1,65.3,65.1,66.2z"/>
		<path class="st1" d="M138.6,144.8c1.4,0,2.7-0.5,3.6-1.5c2-2,2-5.3,0-7.3c-1-1-2.3-1.5-3.6-1.5c-1.4,0-2.7,0.5-3.6,1.5
			c-2,2-2,5.3,0,7.3C135.9,144.3,137.2,144.8,138.6,144.8z M136.9,138c0.4-0.4,1-0.7,1.7-0.7c0.6,0,1.2,0.2,1.7,0.7
			c0.9,0.9,0.9,2.4,0,3.4c-0.4,0.4-1,0.7-1.7,0.7c-0.6,0-1.2-0.2-1.7-0.7C136,140.4,136,138.9,136.9,138z"/>
		<path class="st1" d="M83.7,77.8c0-0.2,0-0.5,0.1-0.7C83.7,77.3,83.7,77.5,83.7,77.8z"/>
		<path class="st1" d="M103.3,79.3L68,44c-0.3-0.3-0.6-0.4-1-0.4s-0.7,0.1-1,0.4L43,67.1c-0.5,0.5-0.5,1.4,0,2l36.3,36.3
			c0.3,0.3,0.6,0.4,1,0.4c0.4,0,0.7-0.1,1-0.4c0.5-0.5,0.5-1.4,0-2l-35-35l-0.3-0.3l0.3-0.3l20.4-20.4L67,47l0.3,0.3l13.3,13.3
			L81,61l-0.3,0.3l-5.8,5.8c-0.5,0.5-0.5,1.4,0,2c0.3,0.3,0.6,0.4,1,0.4c0.4,0,0.7-0.1,1-0.4l5.8-5.8L83,63l0.3,0.3l7,7l0.3,0.3
			L90.3,71l-5.8,5.8c-0.5,0.5-0.5,1.4,0,2c0.3,0.3,0.6,0.4,1,0.4c0.4,0,0.7-0.1,1-0.4l5.8-5.8l0.3-0.3L93,73l7,7l0.3,0.3l-0.3,0.3
			l-5.8,5.8c-0.5,0.5-0.5,1.4,0,2c0.3,0.3,0.6,0.4,1,0.4c0.4,0,0.7-0.1,1-0.4l7.1-7.1C103.9,80.8,103.9,79.9,103.3,79.3z"/>
		<path class="st1" d="M159.7,135.1c0.2,0.3,0.3,0.7,0.3,1C160,135.7,159.9,135.4,159.7,135.1z"/>
		<path class="st1" d="M114,108.1c0-0.2,0-0.5,0.1-0.7C114,107.6,114,107.8,114,108.1z"/>
		<path class="st1" d="M123,99.1c0.1,0,0.2,0,0.4,0C123.2,99.1,123.1,99.1,123,99.1z"/>
		<path class="st1" d="M121.6,99.6c0.2-0.2,0.4-0.3,0.6-0.4C122,99.3,121.8,99.5,121.6,99.6l-7.1,7.1c-0.2,0.2-0.3,0.4-0.4,0.6
			c0.1-0.2,0.2-0.4,0.4-0.6L121.6,99.6z"/>
		<path class="st1" d="M123.9,100c-0.3-0.3-0.6-0.4-1-0.4s-0.7,0.1-1,0.4l-7.1,7.1c-0.5,0.5-0.5,1.4,0,2c0.3,0.3,0.6,0.4,1,0.4
			c0.4,0,0.7-0.1,1-0.4l5.8-5.8l0.3-0.3l0.3,0.3l6.6,6.6l0.3,0.3l-0.3,0.3l-5.8,5.8c-0.5,0.5-0.5,1.4,0,2c0.3,0.3,0.6,0.4,1,0.4
			c0.4,0,0.7-0.1,1-0.4l5.8-5.8l0.3-0.3l0.3,0.3l7.2,7.2l0.3,0.3l-0.3,0.3l-5.8,5.8c-0.5,0.5-0.5,1.4,0,2c0.3,0.3,0.6,0.4,1,0.4
			c0.4,0,0.7-0.1,1-0.4l5.8-5.8l0.3-0.3l0.3,0.3l13.3,13.3l0.3,0.3l-0.3,0.3l-20.4,20.4l-0.3,0.3l-0.3-0.3L100,122.2
			c-0.3-0.3-0.6-0.4-1-0.4c-0.4,0-0.7,0.1-1,0.4c-0.5,0.5-0.5,1.4,0,2l36,36c0.3,0.3,0.6,0.4,1,0.4s0.7-0.1,1-0.4l23.1-23.1
			c0.5-0.5,0.5-1.4,0-2L123.9,100z"/>
		<path class="st1" d="M99,121.3c0.1,0,0.2,0,0.4,0C99.3,121.3,99.1,121.3,99,121.3z"/>
		<path class="st1" d="M99.4,121.3c0.2,0,0.5,0.1,0.7,0.3C99.8,121.4,99.6,121.3,99.4,121.3z"/>
	</g>
	<path class="st2" d="M141.8,81.8c0,0,15.5-15.5,15.5-15.5c3.7-3.7,3.7-9.6,0-13.3l-7.1-7.1c-3.7-3.7-9.6-3.7-13.3,0l-10.2,10.2
		c-0.7,0.7-0.7,1.9,0,2.7c0.7,0.7,1.9,0.7,2.7,0l10.2-10.2c2.2-2.2,5.8-2.2,8,0l7.1,7.1c2.2,2.2,2.2,5.8,0,8l-7.5,7.5l-16.4-16.4
		c-0.7-0.7-1.9-0.7-2.7,0l-6.6,6.6c0,0-66.3,66.3-66.3,66.3c0,0,0,0,0,0c0,0,0,0,0,0.1c-0.1,0.2-0.3,0.3-0.4,0.6l-7.2,17.6
		c0,0,0,0,0,0l-5.2,12.5c-0.3,0.7-0.1,1.5,0.4,2c0.4,0.4,0.8,0.6,1.3,0.6c0.2,0,0.5,0,0.7-0.1l12.6-5.2c0,0,0,0,0,0l17.6-7.2
		c0.2-0.1,0.4-0.2,0.6-0.4c0,0,0,0,0,0c0,0,0,0,0,0L141.8,81.8z M74.8,143.4c-0.5-0.9-1.1-1.7-1.8-2.4c-1.5-1.5-3.3-2.5-5.2-3
		l49.2-49.2c0.7-0.7,0.7-1.9,0-2.7c-0.7-0.7-1.9-0.7-2.7,0l-49.2,49.2c-0.5-1.9-1.5-3.7-3-5.2c-0.7-0.7-1.5-1.3-2.4-1.8l63-63
		l6.2,6.2l-18,18c-0.7,0.7-0.7,1.9,0,2.7c0.4,0.4,0.8,0.6,1.3,0.6c0.5,0,1-0.2,1.3-0.6l18-18l6.2,6.2L74.8,143.4z M57,151.8
		l-5.6-5.6l6.1-14.7c0.7,0.4,1.4,0.9,2,1.5c1.8,1.8,2.6,4.2,2.2,6.5c-0.1,0.6,0.1,1.2,0.5,1.7c0.4,0.4,1.1,0.6,1.7,0.5
		c2.3-0.4,4.7,0.4,6.5,2.2c0.6,0.6,1.1,1.3,1.5,2L57,151.8z M129.3,58.7l15.1,15.1l-4,3.9l-15.1-15.1L129.3,58.7z M49.8,149.9
		l3.4,3.4l-5.8,2.4L49.8,149.9z"/>
</g>
</svg>
