<svg xmlns="http://www.w3.org/2000/svg" viewBox="0 0 512.2 256.8"> <path d="M84.5 62.2h346.3v52.6H84.5z"/> <path d="M84.5 62.2h346.3v52.6H84.5z"/> <path d="M84.5 64.1h346.3v48.7H84.5z"/> <path d="M84.5 105.7h346.3v7.2H84.5zM84.5 64.1h346.3v7.2H84.5zM84.5 79.4h346.3v18.2H84.5z"/> <path d="M84.5 83.3h346.3v10.5H84.5zM84.5 81.5h346.3v1.8H84.5z"/> <path d="M84.5 92h346.3v1.8H84.5z"/> <g> <path d="M84.5 154.1h346.3v52.6H84.5z"/> <path d="M84.5 154.1h346.3v52.6H84.5z"/> <path d="M84.5 156h346.3v48.7H84.5z"/> <path d="M84.5 197.6h346.3v7.2H84.5zM84.5 156h346.3v7.2H84.5zM84.5 171.3h346.3v18.2H84.5z"/> <path d="M84.5 175.1h346.3v10.5H84.5z"/> <path d="M84.5 173.3h346.3v1.8H84.5zM84.5 183.8h346.3v1.8H84.5z"/> </g> <g> <path d="M38.2 40.4h44v194.2h-44z"/> <path d="M60.2 40.4h22v194.2h-22z"/> <path d="M44.7 40.4h31v194.2h-31z"/> <path d="M38.2 82.3h44v34h-44z"/> <path d="M60.2 82.3h22v34h-22z"/> <path d="M44.7 82.3h31v34h-31z"/> <g> <path d="M38.2 156.4h44v34h-44z"/> <path d="M60.2 156.4h22v34h-22z"/> <path d="M44.7 156.4h31v34h-31z"/> </g> <g> <path d="M19.2 225h1.6v9.3h-1.6zM24.4 225H26v9.3h-1.6z"/> <path d="M20.8 225h3.6v9.3h-3.6z"/> <path d="M26 225.9l-6.8 1.5v-.8L26 225zM26 227.5l-6.8 1.5v-.8l6.8-1.5zM26 229.2l-6.8 1.5v-.8l6.8-1.5zM26 230.8l-6.8 1.5v-.8L26 230z"/> <g> <path d="M16.1 229h3v5.3h-3zM26 229h3v5.3h-3z"/> <path d="M19.2 229h6.9v5.3h-6.9z"/> </g> <g> <path d="M94.4 225H96v9.3h-1.6zM99.7 225h1.6v9.3h-1.6zM96 225h3.6v9.3H96z"/> <g> <path d="M101.3 225.9l-6.9 1.5v-.8l6.9-1.6zM101.3 227.5l-6.9 1.5v-.8l6.9-1.5zM101.3 229.2l-6.9 1.5v-.8l6.9-1.5zM101.3 230.8l-6.9 1.5v-.8l6.9-1.5z"/> </g> <g> <path d="M91.4 229h3v5.3h-3zM101.3 229h3v5.3h-3z"/> <path d="M94.4 229h6.9v5.3h-6.9z"/> </g> </g> <path d="M11.8 237.9h96.9v6.4H11.8zM11.8 234.3h96.9v3.6H11.8z"/> <path d="M11.8 237.9h96.9v6.4H11.8z"/> </g> <g> <path d="M36 20.6V46h7.1V16.5zM77.3 16.5V46h7.2V20.6z"/> <path d="M60.2 16.5H43.1V46h34.2V16.5z"/> </g> </g> <g> <path d="M431.3 40.4h44v194.2h-44z"/> <path d="M453.3 40.4h22v194.2h-22z"/> <path d="M437.8 40.4h31v194.2h-31z"/> <path d="M431.3 82.3h44v34h-44z"/> <path d="M453.3 82.3h22v34h-22z"/> <path d="M437.8 82.3h31v34h-31z"/> <g> <path d="M431.3 156.4h44v34h-44z"/> <path d="M453.3 156.4h22v34h-22z"/> <path d="M437.8 156.4h31v34h-31z"/> </g> <g> <path d="M412.3 225h1.6v9.3h-1.6zM417.5 225h1.6v9.3h-1.6z"/> <path d="M413.9 225h3.6v9.3h-3.6z"/> <path d="M419.1 225.9l-6.8 1.5v-.8l6.8-1.6zM419.1 227.5l-6.8 1.5v-.8l6.8-1.5zM419.1 229.2l-6.8 1.5v-.8l6.8-1.5zM419.1 230.8l-6.8 1.5v-.8l6.8-1.5z"/> <g> <path d="M409.2 229h3v5.3h-3zM419.1 229h3v5.3h-3z"/> <path d="M412.3 229h6.9v5.3h-6.9z"/> </g> <g> <path d="M487.5 225h1.6v9.3h-1.6zM492.8 225h1.6v9.3h-1.6zM489.1 225h3.6v9.3h-3.6z"/> <g> <path d="M494.4 225.9l-6.9 1.5v-.8l6.9-1.6zM494.4 227.5l-6.9 1.5v-.8l6.9-1.5zM494.4 229.2l-6.9 1.5v-.8l6.9-1.5zM494.4 230.8l-6.9 1.5v-.8l6.9-1.5z"/> </g> <g> <path d="M484.5 229h3v5.3h-3zM494.4 229h3v5.3h-3zM487.5 229h6.9v5.3h-6.9z"/> </g> </g> <path d="M404.9 237.9h96.9v6.4h-96.9zM404.9 234.3h96.9v3.6h-96.9z"/> <path d="M404.9 237.9h96.9v6.4h-96.9z"/> </g> <g> <path d="M429.1 20.6V46h7.1V16.5zM470.4 16.5V46h7.2V20.6z"/> <path d="M453.3 16.5h-17.1V46h34.2V16.5z"/> </g> </g> <path d="M80.9 152.1h6.5v63.5h-6.5zM80.9 56.7h6.5v63.5h-6.5zM425.8 152.1h6.5v63.5h-6.5zM425.8 56.7h6.5v63.5h-6.5z"/> <g> <path d="M117.9 62.2h57.2v53h-57.2z"/> <path d="M117.9 62.2h57.2v10h-57.2zM117.9 105.1h57.2v10h-57.2zM117.9 82.2h57.2v13h-57.2z"/> <path d="M117.9 84.9h57.2v7.4h-57.2zM117.9 62.2h57.2V64h-57.2zM117.9 71.3h57.2v2.6h-57.2zM117.9 113.4h57.2v1.8h-57.2zM117.9 103.4h57.2v2.6h-57.2z"/> <g> <path d="M225.1 62.2h57.2v53h-57.2z"/> <path d="M225.1 62.2h57.2v10h-57.2zM225.1 105.1h57.2v10h-57.2zM225.1 82.2h57.2v13h-57.2z"/> <path d="M225.1 84.9h57.2v7.4h-57.2zM225.1 62.2h57.2V64h-57.2zM225.1 71.3h57.2v2.6h-57.2zM225.1 113.4h57.2v1.8h-57.2zM225.1 103.4h57.2v2.6h-57.2z"/> </g> <g> <path d="M332.3 62.2h57.2v53h-57.2z"/> <path d="M332.3 62.2h57.2v10h-57.2zM332.3 105.1h57.2v10h-57.2zM332.3 82.2h57.2v13h-57.2z"/> <path d="M332.3 84.9h57.2v7.4h-57.2zM332.3 62.2h57.2V64h-57.2zM332.3 71.3h57.2v2.6h-57.2zM332.3 113.4h57.2v1.8h-57.2zM332.3 103.4h57.2v2.6h-57.2z"/> </g> </g> <g> <path d="M117.9 153.6h57.2v53h-57.2z"/> <path d="M117.9 153.6h57.2v10h-57.2zM117.9 196.6h57.2v10h-57.2zM117.9 173.6h57.2v13h-57.2z"/> <path d="M117.9 176.4h57.2v7.4h-57.2zM117.9 153.6h57.2v1.8h-57.2zM117.9 162.7h57.2v2.6h-57.2zM117.9 204.8h57.2v1.8h-57.2zM117.9 194.8h57.2v2.6h-57.2z"/> <g> <path d="M225.1 153.6h57.2v53h-57.2z"/> <path d="M225.1 153.6h57.2v10h-57.2zM225.1 196.6h57.2v10h-57.2zM225.1 173.6h57.2v13h-57.2z"/> <path d="M225.1 176.4h57.2v7.4h-57.2zM225.1 153.6h57.2v1.8h-57.2zM225.1 162.7h57.2v2.6h-57.2zM225.1 204.8h57.2v1.8h-57.2zM225.1 194.8h57.2v2.6h-57.2z"/> </g> <g> <path d="M332.3 153.6h57.2v53h-57.2z"/> <path d="M332.3 153.6h57.2v10h-57.2zM332.3 196.6h57.2v10h-57.2zM332.3 173.6h57.2v13h-57.2z"/> <path d="M332.3 176.4h57.2v7.4h-57.2zM332.3 153.6h57.2v1.8h-57.2zM332.3 162.7h57.2v2.6h-57.2zM332.3 204.8h57.2v1.8h-57.2zM332.3 194.8h57.2v2.6h-57.2z"/> </g> </g> </svg>