<?xml version="1.0" encoding="utf-8"?>
<!-- Generator: Adobe Illustrator 24.2.0, SVG Export Plug-In . SVG Version: 6.00 Build 0)  -->
<svg version="1.1" id="Layer_1" xmlns="http://www.w3.org/2000/svg" xmlns:xlink="http://www.w3.org/1999/xlink" x="0px" y="0px"
	 viewBox="0 0 200 200" style="enable-background:new 0 0 200 200;" xml:space="preserve">
<style type="text/css">
	.st0{fill:#FFDA02;}
	.st1{fill:#FFFFFF;}
</style>
<g>
	<path class="st0" d="M150.3,159.1c-4.3,0-7.8-3.5-7.8-7.8v-39.1H58.4v39.1c0,4.3-3.5,7.8-7.8,7.8s-7.8-3.5-7.8-7.8v-39.1h-7
		c-18.5,0-33.6-15.1-33.6-33.6v-4.2c0-18.5,15.1-33.6,33.6-33.6h128.5c18.5,0,33.6,15.1,33.6,33.6v4.2c0,18.5-15.1,33.6-33.6,33.6
		h-6.2v39.1C158.1,155.6,154.6,159.1,150.3,159.1z M53.5,107.3h93.8v44c0,1.6,1.3,2.9,2.9,2.9c1.6,0,2.9-1.3,2.9-2.9v-44h11.1
		c15.8,0,28.7-12.9,28.7-28.7v-4.2c0-15.8-12.9-28.7-28.7-28.7H35.7C19.9,45.7,7,58.6,7,74.4v4.2c0,15.8,12.9,28.7,28.7,28.7h11.9
		v44c0,1.6,1.3,2.9,2.9,2.9s2.9-1.3,2.9-2.9V107.3z M164.3,101.5h-11.1V51.6h11.1c12.6,0,22.8,10.2,22.8,22.8v4.2
		C187.1,91.2,176.8,101.5,164.3,101.5z M158.1,96.6h6.2c9.9,0,18-8.1,18-18v-4.2c0-9.9-8.1-18-18-18h-6.2V96.6z M147.3,101.5H53.5
		V51.6h93.8V101.5z M58.4,96.6h84.1V56.5H58.4V96.6z M47.6,101.5H35.7c-12.6,0-22.8-10.2-22.8-22.8v-4.2c0-12.6,10.2-22.8,22.8-22.8
		h11.9V101.5z M35.7,56.5c-9.9,0-18,8.1-18,18v4.2c0,9.9,8.1,18,18,18h7V56.5H35.7z"/>
	<path class="st1" d="M168,151.1H35.2c-0.8,0-1.5-0.7-1.5-1.5c0-0.8,0.7-1.5,1.5-1.5H168c0.8,0,1.5,0.7,1.5,1.5
		C169.5,150.5,168.9,151.1,168,151.1z"/>
	<path class="st1" d="M168,133.2H35.2c-0.8,0-1.5-0.7-1.5-1.5s0.7-1.5,1.5-1.5H168c0.8,0,1.5,0.7,1.5,1.5S168.9,133.2,168,133.2z"/>
	<path class="st1" d="M55.8,150.6c-0.2,0-0.5-0.1-0.7-0.3l-17.9-17.9c-0.4-0.4-0.4-1,0-1.4c0.4-0.4,1-0.4,1.4,0l17.9,17.9
		c0.4,0.4,0.4,1,0,1.4C56.3,150.5,56.1,150.6,55.8,150.6z"/>
	<path class="st1" d="M74.5,150.6c-0.2,0-0.5-0.1-0.7-0.3L56,132.4c-0.4-0.4-0.4-1,0-1.4c0.4-0.4,1-0.4,1.4,0l17.9,17.9
		c0.4,0.4,0.4,1,0,1.4C75,150.5,74.8,150.6,74.5,150.6z"/>
	<path class="st1" d="M93.2,150.6c-0.2,0-0.5-0.1-0.7-0.3l-17.9-17.9c-0.4-0.4-0.4-1,0-1.4c0.4-0.4,1-0.4,1.4,0l17.9,17.9
		c0.4,0.4,0.4,1,0,1.4C93.7,150.5,93.5,150.6,93.2,150.6z"/>
	<path class="st1" d="M111.9,150.6c-0.2,0-0.5-0.1-0.7-0.3l-17.9-17.9c-0.4-0.4-0.4-1,0-1.4c0.4-0.4,1-0.4,1.4,0l17.9,17.9
		c0.4,0.4,0.4,1,0,1.4C112.4,150.5,112.2,150.6,111.9,150.6z"/>
	<path class="st1" d="M130.6,150.6c-0.2,0-0.5-0.1-0.7-0.3l-17.9-17.9c-0.4-0.4-0.4-1,0-1.4c0.4-0.4,1-0.4,1.4,0l17.9,17.9
		c0.4,0.4,0.4,1,0,1.4C131.1,150.5,130.9,150.6,130.6,150.6z"/>
	<path class="st1" d="M149.3,150.6c-0.2,0-0.5-0.1-0.7-0.3l-17.9-17.9c-0.4-0.4-0.4-1,0-1.4c0.4-0.4,1-0.4,1.4,0l17.9,17.9
		c0.4,0.4,0.4,1,0,1.4C149.8,150.5,149.6,150.6,149.3,150.6z"/>
	<path class="st1" d="M168,150.6c-0.2,0-0.5-0.1-0.7-0.3l-17.9-17.9c-0.4-0.4-0.4-1,0-1.4c0.4-0.4,1-0.4,1.4,0l17.9,17.9
		c0.4,0.4,0.4,1,0,1.4C168.5,150.5,168.3,150.6,168,150.6z"/>
	<path class="st1" d="M149.7,150.2c-0.2,0-0.5-0.1-0.7-0.3c-0.4-0.4-0.4-1,0-1.4l17.9-17.9c0.4-0.4,1-0.4,1.4,0c0.4,0.4,0.4,1,0,1.4
		l-17.9,17.9C150.2,150.1,149.9,150.2,149.7,150.2z"/>
	<path class="st1" d="M131,150.2c-0.2,0-0.5-0.1-0.7-0.3c-0.4-0.4-0.4-1,0-1.4l17.9-17.9c0.4-0.4,1-0.4,1.4,0c0.4,0.4,0.4,1,0,1.4
		l-17.9,17.9C131.5,150.1,131.2,150.2,131,150.2z"/>
	<path class="st1" d="M112.3,150.2c-0.2,0-0.5-0.1-0.7-0.3c-0.4-0.4-0.4-1,0-1.4l17.9-17.9c0.4-0.4,1-0.4,1.4,0c0.4,0.4,0.4,1,0,1.4
		L113,149.9C112.8,150.1,112.5,150.2,112.3,150.2z"/>
	<path class="st1" d="M93.6,150.2c-0.2,0-0.5-0.1-0.7-0.3c-0.4-0.4-0.4-1,0-1.4l17.9-17.9c0.4-0.4,1-0.4,1.4,0c0.4,0.4,0.4,1,0,1.4
		l-17.9,17.9C94.1,150.1,93.8,150.2,93.6,150.2z"/>
	<path class="st1" d="M74.9,150.2c-0.2,0-0.5-0.1-0.7-0.3c-0.4-0.4-0.4-1,0-1.4l17.9-17.9c0.4-0.4,1-0.4,1.4,0c0.4,0.4,0.4,1,0,1.4
		l-17.9,17.9C75.4,150.1,75.1,150.2,74.9,150.2z"/>
	<path class="st1" d="M56.2,150.2c-0.2,0-0.5-0.1-0.7-0.3c-0.4-0.4-0.4-1,0-1.4l17.9-17.9c0.4-0.4,1-0.4,1.4,0c0.4,0.4,0.4,1,0,1.4
		l-17.9,17.9C56.7,150.1,56.4,150.2,56.2,150.2z"/>
	<path class="st1" d="M37.5,150.2c-0.2,0-0.5-0.1-0.7-0.3c-0.4-0.4-0.4-1,0-1.4l17.9-17.9c0.4-0.4,1-0.4,1.4,0c0.4,0.4,0.4,1,0,1.4
		l-17.9,17.9C38,150.1,37.7,150.2,37.5,150.2z"/>
</g>
</svg>
