<svg version="1.1" xmlns="http://www.w3.org/2000/svg" xmlns:xlink="http://www.w3.org/1999/xlink" preserveAspectRatio="xMidYMid meet" viewBox="0 0 640 640" width="640" height="640"><defs><path d="M371.59 265.9L345.39 239.7L237.33 239.7L237.33 212.54L278.11 212.54L278.11 175.05L159.06 175.05L159.06 212.54L199.84 212.54L199.84 239.7L0 239.7L0 357.73L70.53 357.73L70.53 445.99L364.04 445.99L505.06 271.1L546.36 260.74L573.74 288.12L600.26 261.61L557.85 219.21L371.59 265.9ZM37.49 320.24L37.49 277.19L70.53 277.19L70.53 320.24L37.49 320.24ZM587 322.05C561.32 357.36 547.05 376.98 544.2 380.91C528.79 402.1 531.05 430.93 549.58 449.45C559.58 459.45 572.87 464.95 587 464.95C601.14 464.95 614.43 459.45 624.42 449.45C642.95 430.93 645.21 402.1 629.8 380.91C624.09 373.06 609.83 353.44 587 322.05Z" id="i2kP97TYbB"></path></defs><g><g><g><use xlink:href="#i2kP97TYbB" opacity="1" fill="#156cb3" fill-opacity="1"></use><g><use xlink:href="#i2kP97TYbB" opacity="1" fill-opacity="0" stroke="#000000" stroke-width="1" stroke-opacity="0"></use></g></g></g></g></svg>