<svg xmlns="http://www.w3.org/2000/svg" viewBox="0 0 512 512">
  <path d="M369.837.373c-8.284 0-15 6.701-15 14.967v46.272H157.163V14.967c0-8.266-6.716-14.967-15-14.967s-15 6.701-15 14.967V496.66c0 8.266 6.716 14.967 15 14.967s15-6.701 15-14.967v-45.9h197.674v46.272c0 8.266 6.716 14.967 15 14.967s15-6.701 15-14.967V15.34c0-8.266-6.716-14.967-15-14.967zm-15 240.846H157.163V181.35h197.674zm-197.674 29.935h197.674v59.869H157.163zM354.837 91.547v59.869H157.163V91.547zM157.163 420.826v-59.869h197.674v59.869z"/>
</svg>