<svg height="512" viewBox="0 0 64 64" width="512" xmlns="http://www.w3.org/2000/svg"><g id="Network_folder" data-name="Network folder"><path d="m24.039 10.725a1 1 0 0 1 .961-.725h10v-1h-12v5.36z"/><path d="m43.674 12h-17.92l-3.428 12h17.92z"/><path d="m37 8v2h1v-4h-11a1 1 0 0 1 -.707-.293l-1.707-1.707h-4.586v20h.246l.754-2.64v-13.36a1 1 0 0 1 1-1h14a1 1 0 0 1 1 1z"/><path d="m9 46h10v-1h-12v5.36l1.039-3.635a1 1 0 0 1 .961-.725z"/><path d="m10.293 41.707-1.707-1.707h-4.586v20h.246l.754-2.64v-13.36a1 1 0 0 1 1-1h14a1 1 0 0 1 1 1v2h1v-4h-11a1 1 0 0 1 -.707-.293z"/><path d="m6.326 60h17.92l3.428-12h-17.92z"/><path d="m38.326 60h17.92l3.428-12h-17.92z"/><path d="m53 44v2h1v-4h-11a1 1 0 0 1 -.707-.293l-1.707-1.707h-4.586v20h.246l.754-2.64v-13.36a1 1 0 0 1 1-1h14a1 1 0 0 1 1 1z"/><path d="m40.039 46.725a1 1 0 0 1 .961-.725h10v-1h-12v5.36z"/><path d="m15 35.816v4.184h2v-4.184a2.809 2.809 0 0 1 -2 0z"/><circle cx="32" cy="33" r="2"/><path d="m33 30.184v-4.184h-2v4.184a2.809 2.809 0 0 1 2 0z"/><path d="m18.816 32a2.809 2.809 0 0 1 0 2h10.368a2.809 2.809 0 0 1 0-2z"/><path d="m47 35.816v4.184h2v-4.184a2.809 2.809 0 0 1 -2 0z"/><path d="m34.816 32a2.809 2.809 0 0 1 0 2h10.368a2.809 2.809 0 0 1 0-2z"/><circle cx="48" cy="33" r="2"/><circle cx="16" cy="33" r="2"/></g></svg>