<?xml version="1.0" encoding="utf-8"?>
<!-- Generator: Adobe Illustrator 24.2.0, SVG Export Plug-In . SVG Version: 6.00 Build 0)  -->
<svg version="1.1" id="Layer_1" xmlns="http://www.w3.org/2000/svg" xmlns:xlink="http://www.w3.org/1999/xlink" x="0px" y="0px"
	 viewBox="0 0 200 200" style="enable-background:new 0 0 200 200;" xml:space="preserve">
<style type="text/css">
	.st0{fill:#FFFFFF;}
	.st1{fill:none;}
	.st2{fill:#FFDA02;}
</style>
<g>
	<path class="st0" d="M110.8,132.7c0.6,0.6,1.6,0.8,2.5,0.5c0.8-0.3,1.4-1.1,1.4-1.9c0-0.1,0-0.3,0-0.4c0-0.1-0.1-0.3-0.1-0.4
		c0-0.1-0.1-0.3-0.2-0.4c-0.1-0.1-0.2-0.2-0.3-0.3c-0.9-0.8-2.3-0.8-3.2,0c-0.4,0.4-0.6,0.9-0.7,1.5c0,0.3,0.1,0.5,0.2,0.8
		C110.4,132.3,110.6,132.5,110.8,132.7L110.8,132.7z"/>
	<path class="st0" d="M129.7,53.2c-0.2-0.2-0.5-0.3-0.7-0.4c-0.8-0.3-1.8-0.2-2.4,0.4c-0.2,0.2-0.4,0.4-0.5,0.7
		c-0.1,0.2-0.2,0.5-0.2,0.8c0,0.6,0.2,1.1,0.7,1.5c0.4,0.4,1,0.6,1.6,0.6c0.3,0,0.6,0,0.9-0.2c0.3-0.1,0.5-0.3,0.7-0.4
		c0.4-0.4,0.6-0.9,0.7-1.5c0-0.3-0.1-0.5-0.2-0.8C130.1,53.6,129.9,53.4,129.7,53.2L129.7,53.2z"/>
	<g>
		<rect x="98.9" y="42.2" class="st1" width="36" height="4.1"/>
		<rect x="98.9" y="50.5" class="st1" width="36" height="10.4"/>
		<path class="st1" d="M49.4,77.4c0,1.1,1,2.1,2.2,2.1h29.2v-4.1H49.4V77.4z"/>
		<polygon class="st1" points="140.4,108.5 145.5,100 144.1,102.3 		"/>
		<path class="st1" d="M97.1,141.4c6.3,6.7,16.9,8.3,25.3,3.9c8.4-4.4,12.2-13.7,9.1-22.1l-0.6,0.9l-0.2,0.3l0.2-0.3l-6.7,11.1
			c-2.7,4.5-8.2,7-13.8,6.2c-5.6-0.8-10-4.7-11.1-9.8l-3-13.9l0,0l1,4.4l-1-4.4C90.5,124.8,90.8,134.7,97.1,141.4z"/>
		<path class="st1" d="M148.3,73.3H87.6c-1.2,0-2.2,0.9-2.2,2.1v8.9c0,0.5,0.2,1,0.5,1.3l10.2,11.3c0.2,0.3,0.4,0.6,0.5,0.9
			l7.2,33.1c0.7,3.4,3.7,6,7.4,6.5c3.7,0.5,7.4-1.1,9.2-4.1l15.3-25.4l0,0l14.6-24.2c0.2-0.3,0.3-0.7,0.3-1v-7.2
			C150.6,74.2,149.6,73.3,148.3,73.3z"/>
		<polygon class="st1" points="95.3,112.8 94.6,109.5 95.3,112.8 		"/>
		<path class="st1" d="M83.7,141.1c6.1,12.5,20.8,19.3,35.3,16.5c14.5-2.9,24.9-14.7,24.9-28.4c0-6-2-11.8-5.8-16.7l-3.8,6.3
			c6,10.4,2.3,23.3-8.4,29.7c-10.7,6.4-25,4.2-32.9-5s-6.9-22.5,2.4-30.7l-0.7-3.3l-0.8-3.7C81.8,113.9,77.6,128.6,83.7,141.1z"/>
		<path class="st1" d="M141.6,67.1c0-1.1-1-2.1-2.2-2.1H96.6c-1.2,0-2.2,0.9-2.2,2.1v2.1h47.2V67.1z"/>
		<g>
			<polygon class="st0" points="94.6,109.5 94.6,109.5 94.6,109.5 			"/>
			<path class="st0" d="M131.7,122.8c3,8.6-0.6,18.4-9.1,22.9c-8.5,4.5-19.4,2.8-25.9-4c-6.4-6.8-6.4-17.2-0.5-24.4l-0.9-4
				c-8.6,8-9.8,20.8-2.2,29.7c7.8,9.1,21.7,11.2,32.3,4.9c10.3-6.2,13.7-18.7,8.4-28.8L131.7,122.8z"/>
			<polygon class="st0" points="92.5,100.2 92.5,100.2 92.5,100.2 			"/>
			<path class="st0" d="M77.6,135.9c3,13.1,14.7,23.4,29.1,25.6c14.4,2.1,29-4.2,36.4-15.8c7.2-11.4,5.8-26.2-2.9-36.7l-1.9,3.1
				c3.7,4.9,6.1,11,6.1,17.1c0,13.8-10.6,25.9-25.3,28.8c-14.6,2.9-29.7-4.1-35.8-16.7c-6.1-12.5-1.4-27.5,10.5-35.7l-0.7-3.4
				C81.1,109.5,74.6,123,77.6,135.9z"/>
			
				<rect x="93.5" y="100.1" transform="matrix(0.9772 -0.2122 0.2122 0.9772 -20.1059 22.2918)" class="st0" width="0.5" height="9.5"/>
		</g>
		<path class="st2" d="M148.3,69.1h-2.2v-2.1c0-3.4-3-6.2-6.7-6.2V40.2c0-1.1-1-2.1-2.2-2.1H96.6c-1.2,0-2.2,0.9-2.2,2.1v21.1
			c-2.7,0.9-4.5,3.2-4.5,5.8v2.1h-2.2c-1.9,0-3.7,0.8-5,2.1H47.2c-1.2,0-2.2,0.9-2.2,2.1v4.1c0,3.4,3,6.2,6.7,6.2h29.2v0.6
			c0,1.5,0.6,2.9,1.6,4L92.3,99l0.3,1.2l2,9.3l0.7,3.3l0,0l1.1,5l0,0l3,13.9c1.1,5.1,5.5,9,11.1,9.8c5.6,0.8,11.1-1.7,13.8-6.2
			l6.7-11.1l9.5-15.7l3.7-6.2l1.4-2.3l1-1.7l-1,1.7l8.7-14.5c0.6-0.9,0.8-2,0.8-3v-7.2C155.1,71.9,152,69.1,148.3,69.1z M80.9,79.5
			H51.7c-1.2,0-2.2-0.9-2.2-2.1v-2.1h31.5V79.5z M98.9,42.2h36v4.1h-36V42.2z M98.9,50.5h36v10.4h-36V50.5z M94.4,67.1
			c0-1.1,1-2.1,2.2-2.1h42.7c1.2,0,2.2,0.9,2.2,2.1v2.1H94.4V67.1z M150.6,82.6c0,0.4-0.1,0.7-0.3,1l-14.6,24.2l0,0l-15.3,25.4
			c-1.8,3-5.5,4.7-9.2,4.1c-3.7-0.5-6.6-3.1-7.4-6.5l-7.2-33.1c-0.1-0.3-0.2-0.7-0.5-0.9L85.9,85.5c-0.3-0.4-0.5-0.8-0.5-1.3v-8.9
			c0-1.1,1-2.1,2.2-2.1h60.7c1.2,0,2.2,0.9,2.2,2.1V82.6z"/>
	</g>
</g>
</svg>
