<?xml version="1.0" encoding="utf-8"?>
<svg viewBox="0 0 512 512" xmlns="http://www.w3.org/2000/svg">
  <path d="M424 0H138c-36.393 0-66 29.607-66 66v374c0 39.701 32.299 72 72 72h280c8.837 0 16-7.164 16-16s-7.163-16-16-16H144c-22.056 0-40-17.944-40-40s17.944-40 40-40h280c8.837 0 16-7.164 16-16V16c0-8.836-7.163-16-16-16zM104 371.431V66c0-18.778 15.222-34 34-34h1a5 5 0 015 5v326.164c0 2.615-2.013 4.816-4.622 4.983a71.457 71.457 0 00-28.152 7.76c-3.303 1.696-7.226-.764-7.226-4.476z" style="fill: rgb(21, 108, 179);"/>
  <path d="M424 424H144c-8.837 0-16 7.164-16 16s7.163 16 16 16h280c8.837 0 16-7.164 16-16s-7.163-16-16-16z" style="fill: rgb(21, 108, 179);"/>
</svg>