<svg xmlns="http://www.w3.org/2000/svg" viewBox="0 0 512 512">
  <path d="M472 116.6c23.3-8.3 40-30.5 40-56.6 0-33.1-26.9-60-60-60s-60 26.9-60 60c0 25.7 16.3 47.7 39.1 56.2C411.4 143.9 344.5 228 256 228S100.6 143.9 80.9 116.2C103.7 107.7 120 85.7 120 60c0-33.1-26.9-60-60-60S0 26.9 0 60c0 26.1 16.7 48.3 40 56.6V472H0v40h120v-40H80V178.5c5.8 6.2 12.1 12.7 19 19.1 49.2 46.1 103.5 70.4 157 70.4s107.8-24.3 157-70.4c6.9-6.5 13.2-12.9 19-19.1V472h-40v40h120v-40h-40V116.6zM60 40c11 0 20 9 20 20s-9 20-20 20-20-9-20-20 9-20 20-20zm392 0c11 0 20 9 20 20s-9 20-20 20-20-9-20-20 9-20 20-20z"/>
</svg>