<?xml version="1.0" encoding="utf-8"?>
<!-- Generator: Adobe Illustrator 24.2.0, SVG Export Plug-In . SVG Version: 6.00 Build 0)  -->
<svg version="1.1" id="Layer_1" xmlns="http://www.w3.org/2000/svg" xmlns:xlink="http://www.w3.org/1999/xlink" x="0px" y="0px"
	 viewBox="0 0 200 200" style="enable-background:new 0 0 200 200;" xml:space="preserve">
<style type="text/css">
	.st0{fill:#FFFFFF;}
	.st1{fill:#FFDA02;}
</style>
<g>
	<path class="st0" d="M100,140.8c-0.8,0-1.5-0.7-1.5-1.5v-25.3c0-0.8,0.7-1.5,1.5-1.5s1.5,0.7,1.5,1.5v25.3
		C101.5,140.1,100.8,140.8,100,140.8z"/>
	<g>
		<path class="st1" d="M110.6,116.5H89.4c-1.3,0-2.5-0.5-3.4-1.4l-16.3-17c-0.1-0.2-0.3-0.3-0.4-0.5H9.5c-4.3,0-7.8-3.5-7.8-7.8
			c0-4.3,3.5-7.8,7.8-7.8h40.3V53.7H9.5c-4.3,0-7.8-3.5-7.8-7.8s3.5-7.8,7.8-7.8h181c4.3,0,7.8,3.5,7.8,7.8s-3.5,7.8-7.8,7.8h-38V82
			h38c4.3,0,7.8,3.5,7.8,7.8c0,4.3-3.5,7.8-7.8,7.8h-59.8c-0.1,0.2-0.3,0.3-0.4,0.5l-16.3,17C113.1,116,111.9,116.5,110.6,116.5z
			 M89.4,111.6h21.1l16.2-16.9c0.2-1.2,1.2-2,2.4-2h61.4c1.6,0,2.9-1.3,2.9-2.9s-1.3-2.9-2.9-2.9H150c-1.3,0-2.4-1.1-2.4-2.4V51.3
			c0-1.3,1.1-2.4,2.4-2.4h40.4c1.6,0,2.9-1.3,2.9-2.9s-1.3-2.9-2.9-2.9H9.5c-1.6,0-2.9,1.3-2.9,2.9s1.3,2.9,2.9,2.9h42.7
			c1.3,0,2.4,1.1,2.4,2.4v33.1c0,1.3-1.1,2.4-2.4,2.4H9.5c-1.6,0-2.9,1.3-2.9,2.9s1.3,2.9,2.9,2.9h61.4c1.2,0,2.2,0.9,2.4,2
			L89.4,111.6z M139.3,86.9H63c-1.3,0-2.4-1.1-2.4-2.4V51.3c0-1.3,1.1-2.4,2.4-2.4h76.3c1.3,0,2.4,1.1,2.4,2.4v33.1
			C141.7,85.8,140.7,86.9,139.3,86.9z M65.4,82h71.4V53.7H65.4V82z"/>
		<path class="st1" d="M100,161.9c-4.9,0-8.1-1.5-9.6-4.6c-3.6-7.4,5.8-20.1,7.7-22.6c0.5-0.6,1.2-0.9,1.9-0.9c0,0,0,0,0,0
			c0.8,0,1.5,0.4,1.9,1c1.9,2.5,11.2,15.2,7.6,22.6C108.1,160.3,104.9,161.9,100,161.9z M100,140.4c-3.4,5.1-6.6,11.8-5.2,14.7
			c0.8,1.5,3.3,1.9,5.2,1.9c2.8,0,4.5-0.6,5.1-1.8C106.6,152.3,103.4,145.5,100,140.4z"/>
	</g>
</g>
</svg>
