<svg xmlns="http://www.w3.org/2000/svg" viewBox="0 0 242.667 242.667">
  <path d="M0 0v242.667h242.667V0H0zm70.216 192.128c-11.34 0-20.533-9.193-20.533-20.533s9.193-20.533 20.533-20.533 20.533 9.193 20.533 20.533-9.193 20.533-20.533 20.533zm72.21 0h-26.524c.055-1.063.084-2.132.084-3.208 0-33.901-27.482-61.384-61.384-61.384-1.658 0-3.295.085-4.919.214v-26.591a89.11 89.11 0 014.919-.144c48.549 0 87.905 39.356 87.905 87.905.001 1.076-.042 2.141-.081 3.208zm50.476 0h-29.204c.031-1.068.081-2.132.081-3.208 0-60.296-48.88-109.176-109.176-109.176-1.65 0-3.287.052-4.919.124V50.663c1.636-.057 3.27-.124 4.919-.124 76.425 0 138.381 61.955 138.381 138.381-.001 1.076-.057 2.138-.082 3.208z"/>
</svg>