<svg version="1.1" xmlns="http://www.w3.org/2000/svg" xmlns:xlink="http://www.w3.org/1999/xlink" preserveAspectRatio="xMidYMid meet" viewBox="0 0 640 640" width="640" height="640"><defs><path d="M527.5 376.25C527.5 342.5 527.5 323.75 527.5 320C527.5 309.65 519.11 301.25 508.75 301.25C497.42 301.25 440.75 301.25 338.75 301.25L338.75 263.75C372.5 263.75 391.25 263.75 395 263.75C405.36 263.75 413.75 255.36 413.75 245C413.75 234.65 405.36 226.25 395 226.25C391.25 226.25 372.5 226.25 338.75 226.25L338.75 187.5C395 187.5 426.25 187.5 432.5 187.5C442.86 187.5 451.25 179.11 451.25 168.75C451.25 153.75 451.25 33.75 451.25 18.75C451.25 8.4 442.86 0 432.5 0C410 0 230 0 207.5 0C197.15 0 188.75 8.4 188.75 18.75C188.75 33.75 188.75 153.75 188.75 168.75C188.75 179.11 197.15 187.5 207.5 187.5C213.75 187.5 245 187.5 301.25 187.5L301.25 226.25C267.5 226.25 248.75 226.25 245 226.25C234.65 226.25 226.25 234.65 226.25 245C226.25 255.36 234.65 263.75 245 263.75C248.75 263.75 267.5 263.75 301.25 263.75L301.25 301.25C199.25 301.25 142.58 301.25 131.25 301.25C120.9 301.25 112.5 309.65 112.5 320C112.5 323.75 112.5 342.5 112.5 376.25C56.25 376.25 25 376.25 18.75 376.25C8.4 376.25 0 384.65 0 395C0 410 0 530 0 545C0 555.36 8.4 563.75 18.75 563.75C25 563.75 56.25 563.75 112.5 563.75L112.5 602.5C78.75 602.5 60 602.5 56.25 602.5C45.9 602.5 37.5 610.9 37.5 621.25C37.5 631.61 45.9 640 56.25 640C71.25 640 191.25 640 206.25 640C216.61 640 225 631.61 225 621.25C225 610.9 216.61 602.5 206.25 602.5C202.5 602.5 183.75 602.5 150 602.5L150 563.75C206.25 563.75 237.5 563.75 243.75 563.75C254.11 563.75 262.5 555.36 262.5 545C262.5 530 262.5 410 262.5 395C262.5 384.65 254.11 376.25 243.75 376.25C237.5 376.25 206.25 376.25 150 376.25L150 338.75L490 338.75L490 376.25C433.75 376.25 402.5 376.25 396.25 376.25C385.9 376.25 377.5 384.65 377.5 395C377.5 410 377.5 530 377.5 545C377.5 555.36 385.9 563.75 396.25 563.75C402.5 563.75 433.75 563.75 490 563.75L490 602.5C456.25 602.5 437.5 602.5 433.75 602.5C423.4 602.5 415 610.9 415 621.25C415 631.61 423.4 640 433.75 640C448.75 640 568.75 640 583.75 640C594.11 640 602.5 631.61 602.5 621.25C602.5 610.9 594.11 602.5 583.75 602.5C580 602.5 561.25 602.5 527.5 602.5L527.5 563.75C583.75 563.75 615 563.75 621.25 563.75C631.61 563.75 640 555.36 640 545C640 530 640 410 640 395C640 384.65 631.61 376.25 621.25 376.25C608.75 376.25 577.5 376.25 527.5 376.25ZM226.25 37.5L413.75 37.5L413.75 150L226.25 150L226.25 37.5ZM225 526.25L37.5 526.25L37.5 413.75L225 413.75L225 526.25ZM602.5 526.25L415 526.25L415 413.75L602.5 413.75L602.5 526.25Z" id="bpHhSLfHR"></path></defs><g><g><g><use xlink:href="#bpHhSLfHR" opacity="1" fill="#156cb3" fill-opacity="1"></use><g><use xlink:href="#bpHhSLfHR" opacity="1" fill-opacity="0" stroke="#000000" stroke-width="1" stroke-opacity="0"></use></g></g></g></g></svg>