<?xml version="1.0" encoding="utf-8"?>
<!-- Generator: Adobe Illustrator 24.2.0, SVG Export Plug-In . SVG Version: 6.00 Build 0)  -->
<svg version="1.1" id="Layer_1" xmlns="http://www.w3.org/2000/svg" xmlns:xlink="http://www.w3.org/1999/xlink" x="0px" y="0px"
	 viewBox="0 0 200 200" style="enable-background:new 0 0 200 200;" xml:space="preserve">
<style type="text/css">
	.st0{fill:#FFFFFF;}
	.st1{fill:#FFDA02;}
</style>
<g>
	<path class="st0" d="M37.2,124.7c-1,0-1.9-0.6-2.3-1.5L29,110c-0.4-0.9-0.3-1.9,0.4-2.7c0.5-0.6,13.3-15.5,35.2-29.1
		c20.3-12.5,52.5-26.1,90.8-19.4c0.9,0.2,1.6,0.8,2,1.6l3.6,9.7c0.5,1.3-0.2,2.7-1.4,3.3l-97.7,40c-1.3,0.5-2.8-0.1-3.3-1.4
		c-0.5-1.3,0.1-2.8,1.4-3.3l95.4-39l-2.2-6c-36-5.8-66.4,7-85.6,18.9c-17.8,11-29.6,23.2-33.1,26.9l5.2,11.7c0.6,1.3,0,2.8-1.3,3.4
		C37.9,124.7,37.6,124.7,37.2,124.7z"/>
	<path class="st1" d="M165.1,150.7H37.4c-2.6,0-4.8-2.1-4.8-4.8v-22.6c0-2.6,2.1-4.8,4.8-4.8h127.6c2.6,0,4.8,2.1,4.8,4.8v22.6
		C169.8,148.6,167.7,150.7,165.1,150.7z M37.8,145.6h126.9v-21.9H37.8V145.6z"/>
	<path class="st1" d="M185.8,150.7H17c-1.4,0-2.6-1.1-2.6-2.6c0-1.4,1.1-2.6,2.6-2.6h168.8c1.4,0,2.6,1.1,2.6,2.6
		C188.4,149.5,187.2,150.7,185.8,150.7z"/>
</g>
</svg>
