<svg version="1.1" xmlns="http://www.w3.org/2000/svg" xmlns:xlink="http://www.w3.org/1999/xlink" preserveAspectRatio="xMidYMid meet" viewBox="0 0 640 640" width="640" height="640"><defs><path d="M212.9 485.7C207.6 491.04 200.35 494.02 192.83 494.02C185.31 494.02 178.07 491.04 172.76 485.7C156.73 469.67 28.5 341.42 12.48 325.39C-4.16 308.76 -4.16 281.78 12.48 265.18C14.48 263.17 30.54 247.11 32.55 245.11C49.19 228.47 76.13 228.47 92.76 245.11C99.43 251.78 132.79 285.14 192.83 345.18C355.08 182.94 445.21 92.8 463.24 74.77C479.88 58.14 506.84 58.14 523.45 74.77C525.46 76.78 541.52 92.84 543.52 94.85C560.16 111.48 560.16 138.45 543.52 155.06C477.4 221.19 279.03 419.57 212.9 485.7Z" id="kepirx3qf"></path></defs><g><g><g><use xlink:href="#kepirx3qf" opacity="1" fill="#156cb3" fill-opacity="1"></use><g><use xlink:href="#kepirx3qf" opacity="1" fill-opacity="0" stroke="#000000" stroke-width="1" stroke-opacity="0"></use></g></g></g></g></svg>