<?xml version="1.0" encoding="utf-8"?>
<!-- Generator: Adobe Illustrator 24.0.1, SVG Export Plug-In . SVG Version: 6.00 Build 0)  -->
<svg version="1.1" id="Capa_1" xmlns="http://www.w3.org/2000/svg" xmlns:xlink="http://www.w3.org/1999/xlink" x="0px" y="0px"
	 width="588.6px" height="588.6px" viewBox="0 0 588.6 588.6" style="enable-background:new 0 0 588.6 588.6;" xml:space="preserve"
	>
<style type="text/css">
	.st0{fill:#FF0000;}
</style>
<g>
	<path class="st0" d="M162.6,247.5c-5.7,0.1-9.4,0.7-11.5,1.2v75.8c2.2,0.6,5.7,0.6,8.8,0.7c23.4,0.6,38.9-12.4,38.9-40.7
		C199,259.9,184.9,247.2,162.6,247.5z"/>
	<path class="st0" d="M359,537.8c0.8,0,1.6,0.1,2.3,0.1h178.2c20.8,0,37.8-17,37.8-37.8V87c0-20.8-17-37.8-37.8-37.8H361.4
		c-0.8,0-1.6,0.1-2.3,0.1V0L11.2,46.4V541L359,588.6V537.8z M539.6,516.3H361.4c-0.8,0-1.6-0.1-2.3-0.2V354
		c37.1-6.4,88.7-11.3,133.3-0.8l5.3,10.2c21.3,40.3,44,40,52.8,38c2-0.5,3.1-1,3.1-1l1.2-0.6c0.4-0.3,0.7-0.6,1.1-0.8v101.1
		C555.8,509,548.5,516.3,539.6,516.3z M374.1,334.8c27.9-34,50.5-65.8,65-87.3l0.1,0.1l0.2-0.2c11.4,24,30.2,61.2,43.1,86.6l0,0
		l0.4,0.9c-36.8-6.3-76.3-4-108.8,0.5l0.5-0.6L374.1,334.8z M439.8,176c1.1-2,2.8-2.5,5.7-2.4c0.1,0,5.9,0.4,8,4.4
		c1.3,2.4,3.2,9.9-7,28.3h0c0,0-1.3,2.2-3.8,6.2C436.9,192.2,437.3,180.4,439.8,176z M514.1,359.8c10.6,4.1,20,9.1,28.3,15
		c2.4,3.4,4.6,8.3,4.2,10.6c0,0.1,0,0.2-0.1,0.3C543.1,386.3,529.6,386.7,514.1,359.8z M361.4,70.8h178.2c8.9,0,16.2,7.3,16.2,16.2
		v278.6c-0.5-0.7-0.9-1.3-1.2-1.6l-0.7-0.9l-0.9-0.7c-13.8-10.1-30.5-17.9-49.6-23.1c-13.6-26.6-41.8-82-53.6-107.9
		c6.9-10.6,10.5-16.7,10.7-17c10.7-19.1,13-33.9,7.1-44.4c-5.4-9.5-16-12.4-21.5-12.5c-8.8-0.4-16.3,3.4-20.4,10.6
		c-6.2,11-4.9,30.2,3.9,57.1c0.4,1.2,1,2.8,1.8,4.8c-14.1,21.3-39.7,58.2-72.4,97.8V71C359.8,70.9,360.6,70.8,361.4,70.8z
		 M100.3,291c-8.2,8.2-20.3,11.7-34.3,11.6c-3.1,0-5.8-0.2-8-0.6v39.7L35.2,341V232.7c7.1-1.5,17-2.7,31.3-3
		c14.6-0.4,25.1,2.4,32.2,8.3c6.9,5.6,11.5,15,11.5,26.1C110.2,275.1,106.7,284.6,100.3,291z M207.5,331.7
		c-12.3,10.1-30.9,14.5-53.1,13.8c-13.1-0.4-22.3-1.5-28.5-2.5V230.6c9.2-1.7,21.2-2.9,34-3.2c21.7-0.5,36,3.2,47.3,11.5
		c12.3,9,20.1,23.6,20.1,44.7C227.3,306.6,219,322.2,207.5,331.7z M245.2,226.2l76.8-1.8v23.1l-48.9,0.7v27.9l45.6-0.1v22.9
		l-45.6-0.3v49.1l-28-0.8L245.2,226.2L245.2,226.2L245.2,226.2z"/>
	<path class="st0" d="M67.7,248.6c-4.8,0.1-8,0.6-9.7,1.1v32.8c2,0.5,4.4,0.7,7.8,0.7c12.6,0,20.4-6.8,20.4-18.3
		C86.3,254.5,79.5,248.4,67.7,248.6z"/>
</g>
</svg>
